HIERARCHY
ROOT Hips
{
	OFFSET 0.000000 83.214638 0.000000
	CHANNELS 6 Xposition Yposition Zposition Xrotation Yrotation Zrotation
	JOINT Pelvis
	{
		OFFSET 0.000000 0.000000 0.000000
		CHANNELS 3 Xrotation Yrotation Zrotation
		JOINT LeftUpLeg
		{
			OFFSET 8.479700 -4.795502 -0.379100
			CHANNELS 3 Xrotation Yrotation Zrotation
			JOINT LeftLeg
			{
				OFFSET 0.024144 -32.555107 0.112900
				CHANNELS 3 Xrotation Yrotation Zrotation
				JOINT LeftFoot
				{
					OFFSET -0.024144 -32.638630 -3.012600
					CHANNELS 3 Xrotation Yrotation Zrotation
					JOINT LeftToeBase
					{
						OFFSET 0.970200 -13.225400 11.864200
						CHANNELS 3 Xrotation Yrotation Zrotation
						End Site
						{
							OFFSET 0.000000 12.319262 0.000000
						}
					}
					JOINT LFootTongue
					{
						OFFSET 1.142400 -1.059800 6.665200
						CHANNELS 3 Xrotation Yrotation Zrotation
						End Site
						{
							OFFSET 0.000000 12.319262 0.000000
						}
					}
				}
				JOINT LeftPantLeg
				{
					OFFSET 0.918482 -16.533964 -2.284700
					CHANNELS 3 Xrotation Yrotation Zrotation
					End Site
					{
						OFFSET 0.350399 24.744368 0.000000
					}
				}
			}
		}
		JOINT RightUpLeg
		{
			OFFSET -8.479700 -4.795502 -0.379100
			CHANNELS 3 Xrotation Yrotation Zrotation
			JOINT RightLeg
			{
				OFFSET -0.023144 -32.555092 0.112900
				CHANNELS 3 Xrotation Yrotation Zrotation
				JOINT RightFoot
				{
					OFFSET 0.023144 -32.638641 -3.012700
					CHANNELS 3 Xrotation Yrotation Zrotation
					JOINT RightToeBase
					{
						OFFSET -0.970200 -13.225400 11.864200
						CHANNELS 3 Xrotation Yrotation Zrotation
						End Site
						{
							OFFSET 0.000000 12.319244 0.000000
						}
					}
					JOINT RFootTongue
					{
						OFFSET -1.142200 -1.059800 6.665200
						CHANNELS 3 Xrotation Yrotation Zrotation
						End Site
						{
							OFFSET 0.000000 12.319243 0.000000
						}
					}
				}
				JOINT RightPantLeg
				{
					OFFSET -0.919482 -16.533978 -2.284800
					CHANNELS 3 Xrotation Yrotation Zrotation
					End Site
					{
						OFFSET -0.350400 24.744419 0.000000
					}
				}
			}
		}
	}
	JOINT Spine
	{
		OFFSET 0.000000 7.722000 1.166200
		CHANNELS 3 Xrotation Yrotation Zrotation
		JOINT Spine1
		{
			OFFSET 0.000000 12.024101 0.248800
			CHANNELS 3 Xrotation Yrotation Zrotation
			JOINT Spine2
			{
				OFFSET 0.000000 11.502998 -0.491200
				CHANNELS 3 Xrotation Yrotation Zrotation
				JOINT Neck
				{
					OFFSET 0.000000 18.430702 -3.123100
					CHANNELS 3 Xrotation Yrotation Zrotation
					JOINT Head
					{
						OFFSET 0.000000 9.051102 1.034000
						CHANNELS 3 Xrotation Yrotation Zrotation
						JOINT HairB
						{
							OFFSET 0.208400 24.786102 24.822300
							CHANNELS 3 Xrotation Yrotation Zrotation
							End Site
							{
								OFFSET 0.000000 32.263779 0.000000
							}
						}
						JOINT HairA
						{
							OFFSET -7.081100 24.428299 23.196600
							CHANNELS 3 Xrotation Yrotation Zrotation
							End Site
							{
								OFFSET 0.000000 32.263779 0.000000
							}
						}
						JOINT Hat
						{
							OFFSET 16.728800 15.048294 -15.439601
							CHANNELS 3 Xrotation Yrotation Zrotation
							End Site
							{
								OFFSET 0.000000 32.263779 0.000000
							}
						}
					}
				}
				JOINT LeftShoulder
				{
					OFFSET 6.197800 13.665199 -4.064700
					CHANNELS 3 Xrotation Yrotation Zrotation
					JOINT LeftArm
					{
						OFFSET 7.778100 -0.187103 -1.709300
						CHANNELS 3 Xrotation Yrotation Zrotation
						JOINT LeftForeArm
						{
							OFFSET 22.049376 0.000000 0.000000
							CHANNELS 3 Xrotation Yrotation Zrotation
							JOINT LeftHand
							{
								OFFSET 23.009392 0.000000 0.000000
								CHANNELS 3 Xrotation Yrotation Zrotation
								JOINT LeftHandThumb1
								{
									OFFSET 3.507191 -2.063065 3.133727
									CHANNELS 3 Xrotation Yrotation Zrotation
									JOINT LeftHandThumb2
									{
										OFFSET 3.101337 -1.790558 1.790558
										CHANNELS 3 Xrotation Yrotation Zrotation
										JOINT LeftHandThumb3
										{
											OFFSET 3.058640 -1.765907 1.765906
											CHANNELS 3 Xrotation Yrotation Zrotation
											End Site
											{
												OFFSET -0.415260 3.926476 -0.049563
											}
										}
									}
								}
								JOINT LeftHandIndex1
								{
									OFFSET 11.334419 -0.901459 3.706815
									CHANNELS 3 Xrotation Yrotation Zrotation
									JOINT LeftHandIndex2
									{
										OFFSET 3.283112 0.000000 0.000000
										CHANNELS 3 Xrotation Yrotation Zrotation
										JOINT LeftHandIndex3
										{
											OFFSET 3.323853 0.000000 0.000000
											CHANNELS 3 Xrotation Yrotation Zrotation
											End Site
											{
												OFFSET -1.135597 3.097809 0.402452
											}
										}
									}
								}
								JOINT LeftHandMiddle1
								{
									OFFSET 11.335861 0.000000 0.000000
									CHANNELS 3 Xrotation Yrotation Zrotation
									JOINT LeftHandMiddle2
									{
										OFFSET 3.410492 0.000000 0.000000
										CHANNELS 3 Xrotation Yrotation Zrotation
										JOINT LeftHandMiddle3
										{
											OFFSET 3.312172 0.000000 0.000000
											CHANNELS 3 Xrotation Yrotation Zrotation
											End Site
											{
												OFFSET -1.150200 3.080154 0.400270
											}
										}
									}
								}
								JOINT LeftHandRing1
								{
									OFFSET 11.514786 -0.013176 -3.003090
									CHANNELS 3 Xrotation Yrotation Zrotation
									JOINT LeftHandRing2
									{
										OFFSET 3.053307 0.000000 0.000000
										CHANNELS 3 Xrotation Yrotation Zrotation
										JOINT LeftHandRing3
										{
											OFFSET 3.295807 0.000000 0.000000
											CHANNELS 3 Xrotation Yrotation Zrotation
											End Site
											{
												OFFSET -1.281006 3.013344 0.375733
											}
										}
									}
								}
								JOINT LeftHandPinky1
								{
									OFFSET 10.518692 -0.960396 -5.730441
									CHANNELS 3 Xrotation Yrotation Zrotation
									JOINT LeftHandPinky2
									{
										OFFSET 2.861649 0.000000 0.000000
										CHANNELS 3 Xrotation Yrotation Zrotation
										JOINT LeftHandPinky3
										{
											OFFSET 2.863380 0.000000 0.000000
											CHANNELS 3 Xrotation Yrotation Zrotation
											End Site
											{
												OFFSET -0.843597 2.711159 0.369971
											}
										}
									}
								}
							}
							JOINT LSleeve
							{
								OFFSET 6.676277 -0.344902 -1.011730
								CHANNELS 3 Xrotation Yrotation Zrotation
								End Site
								{
									OFFSET 0.000000 14.885353 0.000000
								}
							}
						}
					}
				}
				JOINT RightShoulder
				{
					OFFSET -6.197800 13.665199 -4.064700
					CHANNELS 3 Xrotation Yrotation Zrotation
					JOINT RightArm
					{
						OFFSET -7.778100 -0.187103 -1.709300
						CHANNELS 3 Xrotation Yrotation Zrotation
						JOINT RightForeArm
						{
							OFFSET -22.049376 0.000000 0.000000
							CHANNELS 3 Xrotation Yrotation Zrotation
							JOINT RightHand
							{
								OFFSET -23.009392 0.000000 0.000000
								CHANNELS 3 Xrotation Yrotation Zrotation
								JOINT RightHandThumb1
								{
									OFFSET -3.507191 -2.063065 3.133727
									CHANNELS 3 Xrotation Yrotation Zrotation
									JOINT RightHandThumb2
									{
										OFFSET -3.101337 -1.790558 1.790558
										CHANNELS 3 Xrotation Yrotation Zrotation
										JOINT RightHandThumb3
										{
											OFFSET -3.058640 -1.765907 1.765906
											CHANNELS 3 Xrotation Yrotation Zrotation
											End Site
											{
												OFFSET 0.415260 3.926476 -0.049563
											}
										}
									}
								}
								JOINT RightHandIndex1
								{
									OFFSET -11.334419 -0.901459 3.706815
									CHANNELS 3 Xrotation Yrotation Zrotation
									JOINT RightHandIndex2
									{
										OFFSET -3.283112 0.000000 0.000000
										CHANNELS 3 Xrotation Yrotation Zrotation
										JOINT RightHandIndex3
										{
											OFFSET -3.323853 0.000000 0.000000
											CHANNELS 3 Xrotation Yrotation Zrotation
											End Site
											{
												OFFSET 1.135597 3.097809 0.402452
											}
										}
									}
								}
								JOINT RightHandMiddle1
								{
									OFFSET -11.335861 0.000000 0.000000
									CHANNELS 3 Xrotation Yrotation Zrotation
									JOINT RightHandMiddle2
									{
										OFFSET -3.410492 0.000000 0.000000
										CHANNELS 3 Xrotation Yrotation Zrotation
										JOINT RightHandMiddle3
										{
											OFFSET -3.312172 0.000000 0.000000
											CHANNELS 3 Xrotation Yrotation Zrotation
											End Site
											{
												OFFSET 1.150200 3.080154 0.400270
											}
										}
									}
								}
								JOINT RightHandRing1
								{
									OFFSET -11.514786 -0.013176 -3.003090
									CHANNELS 3 Xrotation Yrotation Zrotation
									JOINT RightHandRing2
									{
										OFFSET -3.053307 0.000000 0.000000
										CHANNELS 3 Xrotation Yrotation Zrotation
										JOINT RightHandRing3
										{
											OFFSET -3.295807 0.000000 0.000000
											CHANNELS 3 Xrotation Yrotation Zrotation
											End Site
											{
												OFFSET 1.281006 3.013344 0.375733
											}
										}
									}
								}
								JOINT RightHandPinky1
								{
									OFFSET -10.518692 -0.960396 -5.730441
									CHANNELS 3 Xrotation Yrotation Zrotation
									JOINT RightHandPinky2
									{
										OFFSET -2.861649 0.000000 0.000000
										CHANNELS 3 Xrotation Yrotation Zrotation
										JOINT RightHandPinky3
										{
											OFFSET -2.863380 0.000000 0.000000
											CHANNELS 3 Xrotation Yrotation Zrotation
											End Site
											{
												OFFSET 0.843597 2.711159 0.369971
											}
										}
									}
								}
							}
							JOINT RSleeve
							{
								OFFSET -6.676277 -0.344902 -1.011730
								CHANNELS 3 Xrotation Yrotation Zrotation
								End Site
								{
									OFFSET 0.000000 14.885353 0.000000
								}
							}
						}
					}
				}
				JOINT Backpack
				{
					OFFSET 0.000000 -2.471497 36.677502
					CHANNELS 3 Xrotation Yrotation Zrotation
					End Site
					{
						OFFSET 0.000000 20.427315 0.000000
					}
				}
				JOINT Hood
				{
					OFFSET 0.000000 18.754097 -10.431000
					CHANNELS 3 Xrotation Yrotation Zrotation
					JOINT Hood1
					{
						OFFSET 0.000000 -5.011002 -7.685901
						CHANNELS 3 Xrotation Yrotation Zrotation
						End Site
						{
							OFFSET 0.000000 9.175140 0.000000
						}
					}
				}
				JOINT LHoodieString
				{
					OFFSET 5.250500 16.397697 3.089900
					CHANNELS 3 Xrotation Yrotation Zrotation
					JOINT LHoodieString1
					{
						OFFSET 0.257700 -6.364304 3.694600
						CHANNELS 3 Xrotation Yrotation Zrotation
						JOINT LHoodieString2
						{
							OFFSET 0.000000 -9.643799 2.679100
							CHANNELS 3 Xrotation Yrotation Zrotation
							End Site
							{
								OFFSET 0.000000 10.009018 0.000000
							}
						}
					}
				}
				JOINT RHoodieString
				{
					OFFSET -5.250500 16.397697 3.089900
					CHANNELS 3 Xrotation Yrotation Zrotation
					JOINT RHoodieString1
					{
						OFFSET -0.257700 -6.364304 3.694600
						CHANNELS 3 Xrotation Yrotation Zrotation
						JOINT RHoodieString2
						{
							OFFSET 0.000000 -9.643799 2.679100
							CHANNELS 3 Xrotation Yrotation Zrotation
							End Site
							{
								OFFSET 0.000000 10.009018 0.000000
							}
						}
					}
				}
			}
			JOINT LBackpack_Strap
			{
				OFFSET 15.223200 -7.719803 -6.610900
				CHANNELS 3 Xrotation Yrotation Zrotation
				End Site
				{
					OFFSET 0.000000 16.040596 0.000000
				}
			}
			JOINT RBackpack_Strap
			{
				OFFSET -15.223000 -7.719803 -6.610900
				CHANNELS 3 Xrotation Yrotation Zrotation
				End Site
				{
					OFFSET 0.000000 16.040596 0.000000
				}
			}
		}
	}
	JOINT BoyFacialAnim_Joint
	{
		OFFSET 1.000000 -82.208099 -1.550900
		CHANNELS 3 Xrotation Yrotation Zrotation
		End Site
		{
			OFFSET 0.000000 30.012791 0.000000
		}
	}
}
MOTION
Frames: 4
Frame Time: 0.033333
130.254684 79.190125 7.555748 9.789519 -57.076384 1.028788 0.000000 0.000002 0.000000 -33.932096 3.935919 12.286177 39.676839 -3.123200 1.673849 -11.470699 -8.224937 -2.694371 -0.000000 0.000000 0.000000 -0.000000 0.000000 0.000000 -0.000001 -0.000001 -0.000000 -36.793321 -10.058000 2.008808 58.408691 -6.974696 -1.507956 -4.222032 -0.490845 1.401199 -0.000002 0.000001 -0.000001 -0.000002 0.000001 -0.000001 -0.000002 0.000001 -0.000000 18.708931 12.250575 -1.141598 2.967154 -0.035477 -8.004346 8.813662 -3.896414 -2.132430 -7.897047 8.926848 1.741512 -11.591657 24.517341 14.696730 0.000001 0.000000 0.000001 0.000001 0.000000 0.000001 0.000001 0.000000 0.000001 -36.425232 -10.324776 7.836045 -59.197338 -7.387025 -54.384927 0.000024 -57.512624 0.000007 -115.432506 12.057989 34.081961 1.567995 0.456385 2.719342 21.719853 5.574339 7.809405 -0.000001 0.000002 -0.000002 -1.596038 2.285941 -38.358284 2.910928 5.060940 -59.791312 -0.000002 -0.000000 -0.000002 0.346431 5.440595 -52.077423 3.402371 5.315635 -65.221879 0.000002 0.000001 0.000000 -0.157482 5.649382 -60.497164 4.521352 5.698480 -76.842292 -0.000002 0.000000 -0.000004 2.237579 7.081509 -64.402427 4.361044 5.658812 -75.222089 -0.000001 -0.000000 0.000005 -0.000000 0.000003 0.000001 -43.688765 -1.226475 3.384769 -45.868600 47.611275 106.103287 0.003785 94.642489 -0.003742 -36.252465 -16.624617 -28.879590 5.711316 -0.772756 10.830881 24.070331 -15.626638 -19.792391 0.000002 -0.000001 -0.000004 -1.147666 2.123432 13.783639 1.401733 -3.332146 45.620193 0.000000 -0.000000 0.000002 3.419205 -7.208392 51.271088 6.309282 -4.354864 110.798905 0.000000 -0.000000 -0.000002 -3.304164 -2.552579 56.447511 5.520950 -4.576529 100.700163 0.000001 0.000000 0.000002 -4.020114 -3.287966 64.561940 4.009026 -4.611969 81.991244 -0.000001 -0.000001 0.000000 -0.000001 0.000002 -0.000001 -0.000000 -0.000001 0.000001 -0.000000 -0.000001 0.000001 -0.000000 -0.000001 0.000001 -0.000000 -0.000001 0.000001 -0.000000 -0.000001 0.000003 -0.000003 0.000000 -0.000000 -0.000000 -0.000001 0.000001 -0.000000 -0.000001 0.000003 -0.000003 0.000000 -0.000000 -0.000001 0.000001 -0.000001 -0.000001 0.000001 -0.000001 0.000000 0.000002 0.000000 
132.376511 79.260635 7.556881 9.881809 -57.990888 0.828139 -0.000000 0.000002 -0.000000 -35.013295 3.931477 11.574520 39.106183 -1.945806 1.685436 -9.633598 -8.342468 -1.839289 0.000000 -0.000001 0.000000 0.000000 -0.000001 0.000000 -0.000000 0.000000 0.000000 -33.603779 -12.199786 5.101051 60.832301 -6.299030 -0.308776 -3.124723 -0.471167 0.113538 -0.000000 0.000001 -0.000000 -0.000000 0.000001 -0.000000 -0.000002 -0.000000 -0.000000 18.361053 12.752995 -1.640758 2.973659 0.117651 -7.919996 8.822222 -3.738092 -2.066424 -7.884250 8.911993 1.839359 -11.698623 24.693931 15.217269 0.000001 -0.000002 0.000002 0.000001 -0.000002 0.000002 0.000001 -0.000002 0.000002 -36.395045 -10.175046 8.069057 -59.226558 -7.662722 -54.219783 -0.000032 -57.633266 -0.000026 -115.892956 11.840724 34.186121 1.567994 0.456388 2.719343 21.700763 5.620156 7.938892 -0.000000 0.000003 0.000002 -1.592318 2.285298 -38.317884 2.909697 5.060235 -59.777440 -0.000003 0.000000 -0.000002 0.381588 5.469481 -52.105819 3.402135 5.315539 -65.219339 0.000003 0.000001 0.000000 -0.201348 5.625887 -60.514390 4.523720 5.699026 -76.866102 0.000001 0.000001 -0.000002 2.200730 7.065393 -64.457465 4.362033 5.659075 -75.232075 -0.000001 0.000002 0.000002 0.000001 0.000001 -0.000002 -43.689507 -0.978696 3.457004 -46.004066 47.496234 105.966724 -0.002851 94.888184 0.002785 -36.346783 -16.843441 -29.140995 5.774513 -0.871597 10.835072 24.162124 -15.457951 -19.791334 -0.000001 0.000002 -0.000001 -1.146129 2.133803 13.744144 1.400956 -3.331410 45.606864 -0.000001 0.000000 0.000002 3.388364 -7.182509 51.300154 6.309102 -4.354952 110.796453 -0.000000 0.000001 0.000002 -3.261289 -2.583219 56.461516 5.522824 -4.576176 100.724035 -0.000001 -0.000000 -0.000001 -3.977953 -3.315878 64.615208 4.009722 -4.612065 81.999986 -0.000001 0.000001 0.000000 0.000002 0.000001 -0.000004 0.000002 0.000003 -0.000001 0.000002 0.000003 -0.000001 0.000002 0.000003 -0.000001 0.000002 0.000003 -0.000001 0.000002 0.000003 -0.000000 -0.000003 -0.000002 -0.000000 0.000002 0.000003 -0.000001 0.000002 0.000003 -0.000000 -0.000003 -0.000002 -0.000000 0.000001 0.000001 -0.000002 0.000001 0.000001 -0.000002 -0.000000 0.000002 -0.000000 
134.463623 79.147942 7.453055 9.724914 -58.669180 0.542278 -0.000000 0.000002 0.000000 -36.286650 3.923077 10.842541 38.942426 -1.031857 1.688443 -7.917002 -8.432674 -0.961041 -0.000000 0.000000 -0.000000 -0.000000 0.000000 0.000000 0.000001 -0.000001 -0.000000 -29.233199 -14.180468 8.153619 61.147549 -4.539154 0.918550 -1.405395 -0.511711 -0.678084 -0.000000 -0.000000 -0.000001 -0.000000 -0.000000 -0.000001 0.000001 -0.000002 0.000001 18.117545 12.926974 -2.321342 2.989413 0.191831 -7.871260 8.839507 -3.657875 -2.026260 -7.863938 8.911706 1.934290 -12.014433 24.774040 16.020508 -0.000000 -0.000001 -0.000001 -0.000000 -0.000001 -0.000001 -0.000000 -0.000001 -0.000001 -36.357678 -10.132888 8.242755 -59.643473 -7.860755 -54.010991 0.000003 -57.718322 0.000004 -116.133351 11.742604 34.514851 1.567995 0.456390 2.719343 21.769485 5.779898 7.945673 0.000001 0.000002 0.000000 -1.581592 2.290971 -38.257242 2.908389 5.059467 -59.762673 -0.000004 -0.000001 -0.000000 0.409790 5.486144 -52.008171 3.403632 5.316225 -65.235547 0.000003 0.000000 -0.000001 -0.257103 5.589949 -60.455275 4.527885 5.700003 -76.907882 -0.000001 -0.000001 -0.000006 2.127347 7.029241 -64.406553 4.338144 5.652755 -74.989692 -0.000001 -0.000000 0.000001 0.000001 0.000001 0.000002 -43.655431 -0.521502 3.740443 -46.093354 47.114846 105.636846 -0.000022 95.245806 0.000005 -36.335947 -17.348447 -29.348172 5.703501 -0.760768 10.830128 24.199464 -15.408266 -19.806661 -0.000000 0.000001 -0.000001 -1.146798 2.161471 13.686681 1.400215 -3.330681 45.594118 0.000001 0.000000 0.000002 3.346808 -7.153754 51.202175 6.310326 -4.354474 110.812716 0.000001 0.000001 0.000002 -3.211618 -2.608054 56.399218 5.526211 -4.575540 100.765979 -0.000000 -0.000001 -0.000003 -3.909906 -3.341047 64.563558 3.990125 -4.609263 81.755964 0.000001 -0.000001 0.000000 0.000003 -0.000002 -0.000002 -0.000000 0.000002 -0.000001 -0.000000 0.000002 -0.000001 -0.000000 0.000002 -0.000001 -0.000000 0.000002 -0.000001 -0.000000 0.000002 0.000001 -0.000002 -0.000006 0.000001 -0.000000 0.000002 -0.000001 -0.000000 0.000002 0.000001 -0.000002 -0.000006 0.000001 -0.000000 0.000004 -0.000002 -0.000000 0.000004 -0.000002 -0.000000 0.000002 0.000000 
136.615326 78.838539 7.308699 9.304199 -58.943207 0.125774 0.000000 0.000003 -0.000000 -37.841140 3.962057 9.967325 39.210958 -0.505847 1.684187 -6.253845 -8.505580 0.081333 0.000000 0.000001 -0.000000 0.000000 0.000001 0.000000 0.000001 0.000003 -0.000000 -24.014559 -15.723710 11.131269 59.336551 -0.762607 2.161331 1.396169 -0.628092 -0.134235 -0.000003 0.000000 0.000001 -0.000003 0.000000 0.000001 0.000001 0.000001 0.000000 17.842874 12.836237 -2.890572 3.024687 0.191420 -7.861996 8.873409 -3.652632 -2.016939 -7.828977 8.927162 1.990624 -12.203882 24.861911 16.643440 0.000001 0.000000 -0.000000 0.000001 0.000000 -0.000000 0.000001 0.000000 -0.000000 -36.326194 -10.167242 8.276204 -60.291740 -8.121014 -54.011893 -0.000005 -57.456815 -0.000021 -116.153910 11.753920 34.766899 1.567995 0.456382 2.719343 21.878482 6.050022 7.888787 -0.000000 0.000003 0.000000 -1.568883 2.293942 -38.156934 2.907077 5.058710 -59.747715 -0.000000 -0.000000 -0.000002 0.396226 5.472186 -51.945228 3.404359 5.316547 -65.243333 -0.000000 0.000002 -0.000003 -0.302749 5.559254 -60.391891 4.530253 5.700546 -76.931836 -0.000002 -0.000002 -0.000001 2.046184 6.988684 -64.337718 4.350948 5.656146 -75.119664 -0.000001 -0.000000 -0.000004 -0.000000 0.000003 -0.000001 -43.665085 -0.265836 3.783292 -46.255199 46.612524 105.471535 -0.003982 95.524908 0.003964 -36.391449 -17.865613 -29.477553 5.556657 -0.531476 10.820413 24.247286 -15.393448 -19.860274 -0.000000 0.000001 -0.000002 -1.145315 2.197173 13.590099 1.399488 -3.329976 45.581571 0.000000 0.000001 0.000002 3.351409 -7.160284 51.138630 6.310928 -4.354264 110.820461 -0.000000 -0.000000 0.000003 -3.171807 -2.625888 56.333379 5.528098 -4.575202 100.790008 0.000001 -0.000000 -0.000001 -3.835891 -3.366704 64.494054 4.000353 -4.610740 81.883545 -0.000002 -0.000001 0.000000 0.000000 -0.000001 -0.000003 -0.000002 0.000003 0.000001 -0.000002 0.000003 0.000001 -0.000002 0.000003 0.000001 -0.000002 0.000003 0.000001 -0.000002 0.000003 0.000001 -0.000003 0.000003 -0.000002 -0.000002 0.000003 0.000001 -0.000002 0.000003 0.000001 -0.000003 0.000003 -0.000002 -0.000002 0.000003 -0.000001 -0.000002 0.000003 -0.000001 0.000000 0.000003 -0.000000 
